<svg xmlns="http://www.w3.org/2000/svg" width="33" height="32" viewBox="0 0 33 32" fill="none">
<path fill-rule="evenodd" clip-rule="evenodd" d="M16.9604 32C25.797 32 32.9605 24.8366 32.9605 16C32.9605 7.16345 25.797 0 16.9604 0C8.12385 0 0.960419 7.16345 0.960419 16C0.960419 24.8366 8.12385 32 16.9604 32ZM21.9519 7.45348C22.1948 6.59044 21.3573 6.08011 20.5924 6.62504L9.91492 14.2317C9.0854 14.8226 9.21588 16 10.1109 16H12.9226V15.9782H18.4024L13.9374 17.5537L11.969 24.5466C11.726 25.4096 12.5635 25.9199 13.3284 25.375L24.006 17.7684C24.8355 17.1774 24.7049 16 23.81 16H19.5461L21.9519 7.45348Z" fill="white"/>
</svg>